# xmcd
#
# Track frame offsets:
#	150
#	17108
#	40172
#	59473
#	78020
#	93600
#	114039
#	136042
#	169113
#	189853
#
# Disc length: 2675 seconds
#
# Revision: 1
# Processed by: cddbd v1.5.2PL0 Copyright (c) Steve Scherf et al.
# Submitted via: audiograbber 1.83.01
#
DISCID=6e0a710a
DTITLE=Teresa Lynne - Mistress of the Blues
DYEAR=2006
DGENRE=Blues
TTITLE0=What's A Matter
TTITLE1=Should've Been Mine
TTITLE2=Whisky Lies and Alibis
TTITLE3=One More Lie
TTITLE4=Watch Out Girl
TTITLE5=I Just Want To Make Love To You
TTITLE6=Guess Who
TTITLE7=Please Don't Dog Me
TTITLE8=Got to Use My Imagination
TTITLE9=Dog Chasing the Freight Train
EXTD=
EXTT0=
EXTT1=
EXTT2=
EXTT3=
EXTT4=
EXTT5=
EXTT6=
EXTT7=
EXTT8=
EXTT9=
PLAYORDER=
